<svg width="20" height="20" viewBox="0 0 20 20" fill="none" xmlns="http://www.w3.org/2000/svg">
<g clip-path="url(#clip0_24_330)">
<path d="M11.1954 13.2579C11.221 13.3912 11.2437 13.525 11.2636 13.6592C11.3516 14.2642 11.4941 15.2482 11.305 15.8275C10.8318 17.2772 10.1485 18.6988 9.25222 19.9353C8.97435 20.2648 8.47018 20.944 8.02102 20.992C7.60583 21.0364 6.69527 20.8939 6.38809 20.615C5.8309 20.109 6.33092 18.5056 6.48227 17.868C6.86777 16.244 7.27457 14.5068 8.17306 13.0862C8.32542 12.8453 9.13348 11.8961 9.11439 11.7081C8.93026 11.5946 7.65947 11.7753 7.40699 11.847C6.80222 12.0159 6.22187 12.2212 5.60567 12.3542C4.88517 12.5097 4.15498 12.6116 3.42857 12.7388C2.44507 12.9111 1.1741 13.1663 0.360597 12.42C-0.657004 11.4211 0.723554 10.7397 1.49229 10.4048C2.91154 9.78638 4.30359 9.8922 5.80754 9.98288C6.36716 10.0166 6.95311 10.0543 7.5104 10.1834C8.28067 10.3619 8.99075 10.9432 9.78754 10.9661C10.0766 10.9738 10.2382 10.5403 10.1931 10.2947C10.043 9.47592 9.09528 9.00725 8.53277 8.47613C8.25893 8.21892 8.06584 8.06259 7.87578 7.74077C7.66832 7.40796 7.52664 7.04304 7.38986 6.67642C6.87805 5.27061 6.56039 3.80106 6.44566 2.30871C6.37213 1.399 6.33126 -0.0649028 6.82446 -0.845626C7.14041 -1.34575 8.22867 -0.48711 8.54449 -0.296865C8.97013 -0.0289239 9.429 0.213087 9.78836 0.572079C11.9653 2.74686 11.4388 7.00459 11.5357 9.78036C12.2861 9.53463 13.0508 9.2036 13.786 8.90892C14.2336 8.72948 14.6881 8.58677 15.1382 8.41597C16.0106 8.08492 16.8897 7.7799 17.8075 7.59158C18.0686 7.53802 18.7033 7.43129 18.97 7.59044C19.019 7.61961 19.019 7.68769 19.0266 7.73914C19.0986 8.22556 18.6951 8.62989 18.4349 9.00303C17.759 9.97242 17.0068 10.7778 15.9405 11.3164C15.7317 11.4219 15.2194 11.6335 14.9862 11.6805C14.3582 11.807 13.1109 12.0152 12.6955 12.5562C12.6428 12.9138 14.3203 13.002 14.6403 13.0058C15.1783 13.0123 15.7176 12.9777 16.2557 13.0031C16.52 13.0152 16.7822 13.0567 17.0373 13.1269C17.8939 13.355 18.9111 14.0081 19.3593 14.7909C19.6324 15.2677 19.9013 16.2608 19.968 16.8168C20.0023 17.1021 19.9967 17.3919 19.9972 17.6789C19.9975 17.8629 20.0142 18.0699 19.9627 18.2476C19.9513 18.2869 19.9293 18.3362 19.8917 18.3557C19.3485 18.6381 16.6104 18.0356 15.9779 17.8228C15.3799 17.6216 14.7747 17.375 14.2673 16.9936C13.4454 16.3756 12.6751 15.2071 12.0936 14.3521C11.8223 13.9533 11.5315 13.5505 11.3172 13.117C11.223 13.188 11.2321 13.1601 11.1954 13.2579Z" fill="#42413C"/>
</g>
<defs>
<clipPath id="clip0_24_330">
<rect width="20" height="20" fill="white"/>
</clipPath>
</defs>
</svg>
