<svg width="38" height="38" viewBox="0 0 38 38" fill="none" xmlns="http://www.w3.org/2000/svg">
<g clip-path="url(#clip0_24_177)">
<path d="M0 0H38V38H0V0Z" fill="#96BA39"/>
<path d="M20.8671 24.1243C20.9087 24.3402 20.9456 24.557 20.9779 24.7745C21.1212 25.755 21.353 27.3496 21.0453 28.2884C20.2754 30.6377 19.1637 32.9415 17.7054 34.9454C17.2533 35.4794 16.433 36.5799 15.7022 36.6578C15.0266 36.7298 13.5451 36.4988 13.0453 36.0468C12.1387 35.2269 12.9523 32.6285 13.1985 31.5952C13.8258 28.9634 14.4876 26.1481 15.9495 23.8459C16.1974 23.4555 17.5122 21.9173 17.4811 21.6127C17.1815 21.4286 15.1139 21.7215 14.7031 21.8377C13.7191 22.1115 12.7749 22.4442 11.7723 22.6597C10.6 22.9116 9.41193 23.0768 8.23004 23.283C6.62984 23.5622 4.56192 23.9758 3.23832 22.7662C1.58264 21.1475 3.82886 20.0433 5.07964 19.5005C7.3888 18.4984 9.65374 18.6698 12.1007 18.8168C13.0112 18.8715 13.9646 18.9326 14.8714 19.1418C16.1246 19.431 17.2799 20.3731 18.5764 20.4101C19.0466 20.4226 19.3095 19.7201 19.2363 19.3221C18.992 17.9952 17.45 17.2357 16.5348 16.375C16.0892 15.9582 15.7751 15.7048 15.4658 15.1833C15.1283 14.644 14.8978 14.0526 14.6752 13.4585C13.8425 11.1802 13.3256 8.79875 13.139 6.3803C13.0193 4.90605 12.9528 2.5337 13.7553 1.26848C14.2694 0.458003 16.04 1.84948 16.5539 2.15779C17.2464 2.592 17.993 2.9842 18.5777 3.56597C22.1197 7.09035 21.263 13.9903 21.4206 18.4886C22.6416 18.0904 23.8859 17.5539 25.082 17.0764C25.8102 16.7856 26.5498 16.5543 27.2822 16.2775C28.7016 15.741 30.1318 15.2467 31.6252 14.9415C32.0499 14.8547 33.0826 14.6818 33.5167 14.9397C33.5963 14.987 33.5963 15.0973 33.6087 15.1807C33.7258 15.9689 33.0693 16.6242 32.646 17.2289C31.5462 18.7998 30.3224 20.1049 28.5875 20.9779C28.2478 21.1488 27.4143 21.4917 27.0347 21.5679C26.013 21.7729 23.9835 22.1103 23.3076 22.987C23.222 23.5665 25.9514 23.7094 26.472 23.7156C27.3474 23.7261 28.2248 23.6701 29.1003 23.7113C29.5304 23.7309 29.9569 23.7982 30.3721 23.9119C31.7657 24.2816 33.4208 25.3399 34.1501 26.6085C34.5943 27.3812 35.0318 28.9906 35.1405 29.8916C35.1962 30.3539 35.1871 30.8235 35.1879 31.2887C35.1884 31.5869 35.2155 31.9223 35.1318 32.2103C35.1133 32.2741 35.0774 32.3539 35.0162 32.3856C34.1325 32.8431 29.6775 31.8668 28.6483 31.5219C27.6754 31.1959 26.6907 30.7962 25.8651 30.1781C24.5278 29.1767 23.2745 27.2829 22.3283 25.8973C21.887 25.2511 21.4138 24.5984 21.0652 23.8958C20.9119 24.0109 20.9268 23.9657 20.8671 24.1243Z" fill="#FEFEFE"/>
<path d="M20.7122 23.4494L20.7956 23.3032L21.0653 23.8959C20.912 24.0109 20.9268 23.9658 20.8671 24.1243L20.7122 23.4494Z" fill="#A4BB45"/>
<path d="M20.7123 23.4494C20.6806 23.267 20.4231 22.6748 20.4644 22.5348C20.5195 22.5956 20.7367 23.1685 20.7957 23.3032L20.7123 23.4494Z" fill="#DFE1CE"/>
</g>
<defs>
<clipPath id="clip0_24_177">
<rect width="38" height="38" fill="white"/>
</clipPath>
</defs>
</svg>
